<svg width="545" height="46" viewBox="0 0 545 46" fill="none" xmlns="http://www.w3.org/2000/svg">
<g clip-path="url(#clip0_174_359)">
<path d="M6.87426 25.6724H43.5048C43.9637 25.6689 44.4178 25.7649 44.8359 25.9536C45.2539 26.1422 45.6259 26.4192 45.926 26.7652C46.5781 27.4832 46.9392 28.4172 46.9392 29.3857C46.9392 30.3543 46.5781 31.2883 45.926 32.0063C45.6259 32.3523 45.2539 32.6292 44.8359 32.8179C44.4178 33.0066 43.9637 33.1025 43.5048 33.0991H6.87426C5.95689 33.1002 5.05014 32.9036 4.21611 32.5228C3.38208 32.142 2.6405 31.5859 2.04215 30.8928C0.7052 29.4843 -0.0274304 27.6112 0.000198533 25.6724V8.06372C-0.0344522 6.1113 0.698404 4.22282 2.04215 2.80185C2.6405 2.10873 3.38208 1.55272 4.21611 1.17192C5.05014 0.791117 5.95689 0.594513 6.87426 0.595587H43.5048C43.9651 0.592671 44.4205 0.690408 44.8388 0.881896C45.2572 1.07339 45.6283 1.35398 45.926 1.7039C46.6019 2.41113 46.9746 3.35299 46.9652 4.32965C46.9729 5.29524 46.5997 6.22521 45.926 6.91917C45.6247 7.26302 45.2523 7.53779 44.8343 7.72463C44.4164 7.91147 43.9628 8.00594 43.5048 8.00157H6.87426V25.6724Z" fill="#F1BC38"/>
<path d="M49.7708 29.3857V8.03782C49.7344 6.09512 50.4595 4.21484 51.792 2.79666C52.3951 2.1056 53.1411 1.55289 53.9788 1.17651C54.8165 0.800135 55.7261 0.609024 56.6449 0.616301H89.8358C90.757 0.610494 91.6683 0.804861 92.5064 1.18588C93.3445 1.56691 94.0892 2.12542 94.6887 2.82255C96.0187 4.25024 96.7414 6.13649 96.7047 8.08444V13.1909C96.7258 14.1445 96.3822 15.0703 95.7435 15.7805C95.4631 16.1225 95.1127 16.4011 94.7158 16.5975C94.3189 16.794 93.8846 16.9039 93.4417 16.9198C94.3201 17.0059 95.1333 17.4204 95.7175 18.0799C96.3685 18.7698 96.7228 19.6862 96.7047 20.6332V29.2614C96.7338 30.2697 96.3729 31.2506 95.6967 32.0011C95.3953 32.3478 95.0226 32.6258 94.604 32.8163C94.1853 33.0069 93.7305 33.1055 93.2702 33.1055C92.81 33.1055 92.3552 33.0069 91.9365 32.8163C91.5179 32.6258 91.1452 32.3478 90.8438 32.0011C90.1787 31.2915 89.8172 30.3515 89.8358 29.3805V20.6176H56.6449V29.3857C56.6568 30.3613 56.2836 31.3025 55.6057 32.0063C55.3024 32.3499 54.9292 32.6252 54.5108 32.8138C54.0924 33.0023 53.6385 33.0999 53.1793 33.0999C52.7201 33.0999 52.2662 33.0023 51.8478 32.8138C51.4294 32.6252 51.0561 32.3499 50.7528 32.0063C50.0972 31.2926 49.7451 30.3531 49.7708 29.3857ZM89.8358 13.1909V8.01193H56.6449V13.1909H89.8358Z" fill="#F1BC38"/>
<path d="M145.057 7.15738L125.562 24.0513V29.2303C125.591 30.2387 125.23 31.2196 124.554 31.9701C124.253 32.3167 123.88 32.5947 123.461 32.7853C123.043 32.9758 122.588 33.0744 122.128 33.0744C121.667 33.0744 121.212 32.9758 120.794 32.7853C120.375 32.5947 120.003 32.3167 119.701 31.9701C119.036 31.2604 118.674 30.3204 118.693 29.3495V24.0151L99.1984 7.16775C98.7858 6.81175 98.4565 6.36984 98.2339 5.8732C98.0112 5.37656 97.9006 4.8373 97.9098 4.29341C97.892 3.32107 98.2533 2.37975 98.9178 1.66764C99.2199 1.32299 99.5931 1.04739 100.012 0.859686C100.431 0.671984 100.885 0.576601 101.344 0.580046C102.131 0.575866 102.893 0.855443 103.49 1.36725L122.086 17.5154L140.723 1.36725C141.32 0.855443 142.082 0.575866 142.869 0.580046C143.328 0.576601 143.783 0.671984 144.202 0.859686C144.62 1.04739 144.994 1.32299 145.296 1.66764C145.96 2.37975 146.322 3.32107 146.304 4.29341C146.33 4.83407 146.231 5.37342 146.014 5.86995C145.798 6.36648 145.471 6.80692 145.057 7.15738Z" fill="#F1BC38"/>
<path d="M151.287 25.6724H187.917V20.571H154.721C153.8 20.5769 152.889 20.3825 152.051 20.0015C151.213 19.6204 150.468 19.0619 149.868 18.3648C148.543 16.933 147.824 15.0457 147.863 13.0977V8.08445C147.826 6.1365 148.549 4.25025 149.879 2.82256C150.478 2.12543 151.223 1.56691 152.061 1.18589C152.899 0.804867 153.81 0.6105 154.732 0.616307H191.362C191.821 0.612862 192.276 0.708245 192.695 0.895946C193.113 1.08365 193.486 1.35925 193.789 1.7039C194.438 2.42439 194.797 3.35865 194.797 4.32707C194.797 5.2955 194.438 6.22976 193.789 6.95025C193.486 7.2949 193.113 7.57047 192.695 7.75817C192.276 7.94587 191.821 8.04127 191.362 8.03783H154.721V13.1443H187.917C188.838 13.1396 189.749 13.3344 190.587 13.7154C191.425 14.0963 192.17 14.6543 192.77 15.3506C194.099 16.781 194.822 18.6684 194.786 20.6176V25.6258C194.819 27.5747 194.097 29.4612 192.77 30.8928C192.17 31.5891 191.425 32.1471 190.587 32.528C189.749 32.909 188.838 33.1038 187.917 33.0991H151.287C150.827 33.1033 150.372 33.0077 149.953 32.819C149.534 32.6303 149.161 32.353 148.86 32.0063C148.211 31.2867 147.853 30.3533 147.853 29.3857C147.853 28.4182 148.211 27.4848 148.86 26.7652C149.161 26.4185 149.534 26.1412 149.953 25.9525C150.372 25.7638 150.827 25.6682 151.287 25.6724Z" fill="#F1BC38"/>
<path d="M217.757 29.3857V8.08446H201.058C200.599 8.08824 200.144 7.993 199.725 7.80527C199.306 7.61755 198.933 7.34177 198.631 6.99684C197.979 6.27879 197.618 5.34481 197.618 4.37626C197.618 3.40772 197.979 2.47374 198.631 1.75568C198.932 1.40901 199.305 1.1317 199.724 0.943002C200.143 0.754302 200.598 0.658737 201.058 0.66292H241.118C241.577 0.658737 242.032 0.754302 242.451 0.943002C242.87 1.1317 243.243 1.40901 243.544 1.75568C244.196 2.47374 244.557 3.40772 244.557 4.37626C244.557 5.34481 244.196 6.27879 243.544 6.99684C243.242 7.34177 242.869 7.61755 242.45 7.80527C242.031 7.993 241.577 8.08824 241.118 8.08446H224.631V29.3857C224.65 30.3567 224.288 31.2967 223.623 32.0063C223.32 32.35 222.947 32.6252 222.528 32.8138C222.11 33.0023 221.656 33.0999 221.197 33.0999C220.738 33.0999 220.284 33.0023 219.865 32.8138C219.447 32.6252 219.074 32.35 218.77 32.0063C218.102 31.2984 217.738 30.3577 217.757 29.3857Z" fill="#F1BC38"/>
<path d="M329.197 4.23643L345.257 27.1121C345.712 27.7832 345.951 28.5761 345.943 29.3857C345.969 30.3657 345.607 31.3164 344.935 32.0322C344.593 32.3976 344.173 32.6811 343.705 32.8616C343.238 33.0421 342.735 33.1149 342.235 33.0746C341.736 33.0342 341.252 32.8818 340.819 32.6286C340.387 32.3755 340.018 32.0282 339.739 31.6127L337.141 27.946H307.598L305 31.6593C304.717 32.0724 304.344 32.4161 303.909 32.6643C303.474 32.9126 302.987 33.0589 302.487 33.0924C301.986 33.1258 301.485 33.0454 301.02 32.8572C300.555 32.6691 300.14 32.3781 299.804 32.0063C299.123 31.3044 298.75 30.3619 298.765 29.3857C298.757 28.5761 298.996 27.7832 299.451 27.1121L315.511 4.23643C316.275 3.13336 317.29 2.22641 318.473 1.58996C319.66 0.950828 320.989 0.61618 322.339 0.61618C323.688 0.61618 325.017 0.950828 326.204 1.58996C327.399 2.22239 328.425 3.12963 329.197 4.23643ZM312.752 20.5244H331.946L322.349 6.77933L312.752 20.5244Z" fill="#F1BC38"/>
<path d="M348.759 25.719V4.37626C348.738 3.40493 349.1 2.46413 349.767 1.75568C350.07 1.41204 350.443 1.13678 350.862 0.948213C351.28 0.759648 351.734 0.662125 352.193 0.662125C352.652 0.662125 353.106 0.759648 353.525 0.948213C353.943 1.13678 354.316 1.41204 354.62 1.75568C355.285 2.46532 355.646 3.40532 355.628 4.37626V25.6724H392.258C392.719 25.6701 393.175 25.7681 393.594 25.9595C394.013 26.1509 394.385 26.4312 394.685 26.7807C395.347 27.4939 395.708 28.4345 395.693 29.4064C395.705 30.367 395.344 31.295 394.685 31.9959C394.381 32.3386 394.008 32.6125 393.589 32.7992C393.171 32.9859 392.717 33.0811 392.258 33.0784H355.628C354.71 33.0852 353.801 32.8949 352.964 32.5205C352.127 32.146 351.38 31.5962 350.775 30.9084C349.45 29.5068 348.726 27.6446 348.759 25.719Z" fill="#F1BC38"/>
<path d="M398.525 25.6724V22.0056C398.507 21.0349 398.869 20.0953 399.533 19.3851C399.838 19.0428 400.212 18.7688 400.63 18.5812C401.049 18.3935 401.503 18.2965 401.962 18.2965C402.421 18.2965 402.875 18.3935 403.294 18.5812C403.712 18.7688 404.086 19.0428 404.391 19.3851C405.055 20.0953 405.417 21.0349 405.399 22.0056V25.6724H438.59V4.32965C438.572 3.35731 438.933 2.41602 439.598 1.7039C439.902 1.36175 440.276 1.08783 440.694 0.90023C441.112 0.712632 441.566 0.615627 442.024 0.615627C442.483 0.615627 442.936 0.712632 443.355 0.90023C443.773 1.08783 444.147 1.36175 444.451 1.7039C445.128 2.41022 445.501 3.35269 445.49 4.32965V25.6724C445.518 27.6074 444.794 29.4781 443.469 30.8928C442.869 31.5899 442.125 32.1485 441.287 32.5295C440.448 32.9105 439.537 33.1049 438.616 33.0991H405.425C404.508 33.1005 403.601 32.9041 402.767 32.5232C401.933 32.1424 401.191 31.5862 400.593 30.8928C399.247 29.4884 398.504 27.6148 398.525 25.6724Z" fill="#F1BC38"/>
<path d="M448.295 25.6724V8.03783C448.256 6.09465 448.981 4.21336 450.316 2.79667C450.918 2.10575 451.663 1.55306 452.5 1.17667C453.337 0.800268 454.246 0.609096 455.164 0.616313H491.794C492.254 0.612525 492.708 0.707754 493.127 0.895478C493.546 1.0832 493.919 1.35899 494.221 1.70391C494.87 2.4244 495.229 3.35865 495.229 4.32708C495.229 5.29551 494.87 6.22976 494.221 6.95025C493.919 7.29518 493.546 7.57093 493.127 7.75865C492.708 7.94638 492.254 8.04162 491.794 8.03783H455.164V13.2168H491.794C492.254 13.2127 492.709 13.3082 493.128 13.4969C493.547 13.6856 493.92 13.9629 494.221 14.3096C494.87 15.0293 495.229 15.9626 495.229 16.9302C495.229 17.8977 494.87 18.8311 494.221 19.5508C493.919 19.8964 493.546 20.173 493.127 20.3616C492.709 20.5502 492.254 20.6464 491.794 20.6436H455.164V25.6983H491.753C492.219 25.6912 492.681 25.7853 493.108 25.974C493.534 26.1627 493.914 26.4415 494.221 26.7911C494.87 27.5107 495.229 28.4441 495.229 29.4116C495.229 30.3792 494.87 31.3126 494.221 32.0322C493.92 32.3789 493.547 32.6562 493.128 32.8449C492.709 33.0336 492.254 33.1292 491.794 33.125H455.164C454.246 33.1312 453.338 32.9395 452.501 32.5632C451.664 32.1869 450.919 31.6347 450.316 30.9446C448.975 29.5193 448.249 27.6259 448.295 25.6724Z" fill="#F1BC38"/>
<path d="M518.205 29.3857V8.08445H501.501C501.042 8.08789 500.587 7.99249 500.168 7.80479C499.749 7.61709 499.376 7.34149 499.074 6.99684C498.425 6.27719 498.066 5.34381 498.066 4.37626C498.066 3.4087 498.425 2.47532 499.074 1.75568C499.375 1.40954 499.748 1.13261 500.167 0.943957C500.586 0.755304 501.041 0.659421 501.501 0.662911H541.566C542.025 0.659421 542.48 0.755304 542.899 0.943957C543.318 1.13261 543.691 1.40954 543.992 1.75568C544.641 2.47532 545 3.4087 545 4.37626C545 5.34381 544.641 6.27719 543.992 6.99684C543.69 7.34149 543.317 7.61709 542.898 7.80479C542.479 7.99249 542.025 8.08789 541.566 8.08445H525.079V29.3857C525.1 30.3571 524.738 31.2979 524.071 32.0063C523.768 32.35 523.395 32.6252 522.976 32.8138C522.558 33.0023 522.104 33.0999 521.645 33.0999C521.186 33.0999 520.732 33.0023 520.313 32.8138C519.895 32.6252 519.522 32.35 519.218 32.0063C518.551 31.2975 518.188 30.3574 518.205 29.3857Z" fill="#F1BC38"/>
<path d="M304.028 39.5159L303.774 39.4434C303.571 39.3812 303.358 39.3087 303.14 39.231C302.709 39.0705 302.267 38.8944 301.836 38.7131C300.97 38.3095 300.136 37.8403 299.342 37.3096C297.766 36.2513 296.35 34.9729 295.138 33.5134C293.938 32.0636 292.927 30.4678 292.13 28.7642C291.728 27.9096 291.371 27.0349 291.06 26.1437L290.052 23.1398C288.558 18.7364 286.427 14.5736 283.728 10.7827C282.272 8.76101 280.62 6.88597 278.798 5.1842C277.834 4.28431 276.811 3.44867 275.737 2.68273C275.192 2.28394 274.615 1.90069 273.997 1.5278C273.68 1.34136 273.378 1.15492 273.025 0.973658C272.848 0.880436 272.693 0.807925 272.505 0.693987C270.495 -0.471291 268.416 0.0466102 267.05 0.693987C266.842 0.792388 266.697 0.880436 266.53 0.973658C266.172 1.15492 265.876 1.34136 265.559 1.5278C264.94 1.90069 264.364 2.28394 263.813 2.68273C262.741 3.45 261.721 4.28558 260.758 5.1842C258.936 6.87943 257.285 8.74752 255.827 10.762C253.128 14.5529 250.998 18.7157 249.504 23.1191L248.496 26.1229C248.184 27.0142 247.827 27.8889 247.425 28.7435C246.628 30.4471 245.617 32.0429 244.417 33.4927C243.205 34.9522 241.79 36.2306 240.213 37.2889C239.419 37.8196 238.586 38.2888 237.719 38.6924C237.288 38.8944 236.847 39.0705 236.415 39.2103C236.197 39.288 235.984 39.3605 235.776 39.4227L235.527 39.4951L31.3311 41.6859L236.046 45.9741H236.41L236.805 45.9068C237.174 45.8394 237.325 45.8084 237.522 45.7566L238.094 45.6167C238.462 45.5132 238.816 45.4148 239.133 45.3008C239.824 45.0781 240.489 44.8295 241.133 44.5602C242.391 44.0239 243.607 43.3937 244.77 42.6751C247.004 41.2946 249.03 39.6049 250.787 37.6566C252.439 35.8149 253.853 33.774 254.996 31.5816C255.55 30.5307 256.046 29.4501 256.482 28.3447L257.625 25.3616C257.9 24.6728 258.191 23.9944 258.498 23.3211L269.331 32.5812L280.762 22.8032C281.151 23.6422 281.52 24.4967 281.858 25.3616L283.006 28.3447C283.442 29.4501 283.938 30.5307 284.492 31.5816C285.635 33.774 287.049 35.8149 288.701 37.6566C290.458 39.6049 292.484 41.2946 294.718 42.6751C295.881 43.3937 297.096 44.0239 298.355 44.5602C298.999 44.8295 299.664 45.0781 300.355 45.3008C300.698 45.4148 301.051 45.5132 301.394 45.6167L301.961 45.7566C302.184 45.8084 302.314 45.8394 302.683 45.9068L303.078 45.9741H303.441L508.157 41.6859L304.028 39.5159ZM269.346 24.9059L258.825 22.6582C260.061 19.9591 261.606 17.4114 263.428 15.0657C264.631 13.5262 265.981 12.1074 267.46 10.8293C268.179 10.2045 268.937 9.62666 269.731 9.09952H269.767H269.804C270.597 9.62666 271.356 10.2045 272.074 10.8293C273.553 12.1074 274.904 13.5262 276.106 15.0657C277.888 17.3598 279.406 19.8457 280.632 22.4769L269.346 24.9059Z" fill="white"/>
</g>
<defs>
<clipPath id="clip0_174_359">
<rect width="545" height="46" fill="white"/>
</clipPath>
</defs>
</svg>
